<?xml version="1.0" encoding="UTF-8"?>
<svg id="Layer_1" data-name="Layer 1" xmlns="http://www.w3.org/2000/svg" viewBox="0 0 810.77 447.29">
  <defs>
    <style>
      .cls-1 {
        fill: #603cac;
      }

      .cls-2 {
        fill: #673bad;
      }

      .cls-3 {
        fill: #01379b;
      }
    </style>
  </defs>
  <path class="cls-2" d="M611.7,401.27c.06-1.38,.44-16.47-11.37-25.87-10.3-8.2-21.93-5.74-23.64-5.35-7.77,1.79-16.33,7.37-19.86,15.9-3.25,7.87-1.03,16.08-6.34,20.95-.69,.63-2.37,2.14-4.89,2.41-.16,.02-3.79,.34-6.38-2.3-1.69-1.73-2.39-4.15-2.49-7.43-.47-14.62,7.69-27.07,7.69-27.07,2.21-3.38,10.38-15.25,26.13-20.15,3.88-1.21,13.58-3.63,25.21-.14,12.41,3.73,19.65,11.99,22.21,15.22,1.77,2.23,9.21,11.79,10.84,26.6,1.21,10.99-1.38,19.33-1.96,21.11-5.01,15.43-16.34,23.17-19.6,25.23-11.03,6.97-21.77,7.07-26.13,6.85-1.66-.14-2.95-1.38-3.14-2.79-.24-1.79,1.31-3.78,3.53-3.8,3.9-.06,13.82-.76,23.51-7.95,4.73-3.51,12.88-11.13,15.94-23.85,3.01-12.51-.68-22.58-1.44-24.54-4.1-10.67-11.5-16.24-14.24-18.1-2.83-2.13-9.67-6.69-19.46-7.4-11.38-.83-19.73,4.03-22.6,5.9-7.82,5.07-12.11,11.18-13.19,12.89-5.89,9.3-6.5,18.61-6.53,22.55-.14,1.08,.57,2.08,1.57,2.26,1.03,.18,2.05-.58,2.21-1.7-.06-4.11,.38-12.99,5.89-21.47,3.38-5.21,7.29-8.13,9.28-9.6,2.64-1.94,9.06-6.53,18.59-7.29,8.74-.69,15.46,2.2,18.64,3.86,5.83,3.05,9.43,7.04,10.97,8.91,3.92,4.76,5.59,9.34,6.01,10.56,.29,.83,1.71,4.99,1.95,10.71,.09,2.19,0,4.04-.14,5.39-.1,2.05-1.83,3.59-3.72,3.41-1.83-.18-3.23-1.94-3.06-3.92Z"/>
  <path class="cls-2" d="M648.2,379.25v-21.66h44.12c8.69,2.43,14.83,10.57,15.08,19.84,.25,9.69-5.99,18.46-15.08,21.01-3.62,.13-7.23,.26-10.85,.4-1.19,.14-1.7,.66-1.9,.92-1.07,1.36-.5,4.32,1.87,6.99,6.42,5.93,23.86,22.24,25.34,26.46,.21,.6,.72,2.09,.12,2.72-.7,.74-2.02,.69-2.72-.26l-15.45-15.95c-1.61-1.47-3.96-1.1-4.94,.39-.78,1.19-.63,3.02,.49,4.28,6.01,6.18,12.03,12.36,18.04,18.55,2.91,2.08,6.63,2.17,9.27,.26,3.3-2.38,4.4-7.51,2.1-11.67-7.66-8.43-15.32-16.86-22.99-25.29,1.57-.15,13.19-1.43,19.9-12.06,5.72-9.06,5.59-21.28-.37-31-1.41-2.04-3.71-4.85-7.17-7.39-4.18-3.07-8.21-4.4-10.75-5.01h-50.67v28.49h6.55Z"/>
  <path class="cls-2" d="M682.57,368.85c2.89-.05,5.78-.1,8.67-.14,.6,.32,4.56,2.51,5.53,7.16,.94,4.5-1.31,9.44-5.66,12.01h-25.12c-1.23-.06-12.93-.38-19.53,9.02-2.82,4.01-3.59,8.21-3.83,10.67v34.83c-.19,2.38,1.37,4.33,3.07,4.54,1.94,.24,4.15-1.76,4.01-4.54v-33.22c.06-.99,.5-6.28,4.84-10.15,3.74-3.34,7.95-3.47,9.08-3.47,9.4-.12,18.79-.25,28.19-.37,6.14-1.74,10.86-6.92,12.15-13.37,1.49-7.46-2.12-13.99-6.13-17.45-2.15-1.85-4.34-2.77-5.86-3.25-2.93,.02-5.87,.04-8.8,.06-2,.02-3.63,1.7-3.71,3.72-.07,1.9,1.26,3.62,3.11,3.96Z"/>
  <path class="cls-2" d="M728.58,357.44h78.59c1.82,.04,3.33-1.52,3.34-3.41,.01-1.91-1.51-3.49-3.34-3.45h-78.59c-1.79,0-3.26,1.48-3.34,3.26-.09,1.9,1.42,3.6,3.34,3.6Z"/>
  <path class="cls-2" d="M728.58,360.92h30.17c.54,.08,3.64,.56,5.69,3.54,1.76,2.56,1.6,5.28,1.54,5.97,.03,23.34,.06,46.68,.09,70.01,.18,2.29-1.49,4.21-3.43,4.31-2.06,.1-3.97-1.87-3.79-4.31,.06-23.34,.12-46.68,.18-70.01,0-.26-.05-.97-.54-1.61-.82-1.06-2.14-.96-2.26-.95-9.21-.06-18.43-.13-27.64-.19-2.12,.16-3.82-1.68-3.7-3.6,.11-1.78,1.74-3.33,3.7-3.16Z"/>
  <path class="cls-2" d="M806.79,360.92h-30.17c-.54,.08-3.64,.56-5.69,3.54-1.76,2.56-1.6,5.28-1.54,5.97-.03,23.34-.06,46.68-.09,70.01-.18,2.29,1.49,4.21,3.43,4.31,2.06,.1,3.97-1.87,3.79-4.31-.06-23.34-.12-46.68-.18-70.01,0-.26,.05-.97,.54-1.61,.82-1.06,2.14-.96,2.26-.95,9.21-.06,18.43-.13,27.64-.19,2.12,.16,3.82-1.68,3.7-3.6-.11-1.78-1.74-3.33-3.7-3.16Z"/>
  <g id="S">
    <g>
      <path class="cls-1" d="M108.14,1.99h198.39c23.86,3.31,39.66,26.26,36.44,47.97-2.65,17.83-17.8,32.61-36.92,34.49H107.97c-1.35,.7-26.77,14.36-29.35,44.03-1.91,21.99,9.53,43.49,28.85,53.92h198.39c7.2,.01,53.29,.93,87.44,41.53,35.54,42.26,29.49,93.45,28.53,100.63-2.41,7.44-8.97,12.48-16.3,12.58-7.06,.09-13.53-4.43-16.3-11.4,.82-5.78,5.77-45.3-21.12-78.22-23.77-29.1-55.61-32.47-62.05-33.01H107.97c-33.65-10.35-57.13-42.82-57.76-79.59-.64-37.87,23.09-71.97,57.76-82.65,65.74-.05,131.48-.11,197.22-.16,6.29-.5,10.17-6.16,9.33-10.66-.6-3.19-3.58-5.89-7.36-6.62-66.56-.68-133.12-1.37-199.68-2.05-8.1,.98-32.24,5.03-52.47,26.28-29.06,30.54-26.05,71.41-25.54,77.21-.29,.55-4.56,8.38-13.17,8.96-6.17,.41-12.11-3.07-15.22-8.93C-.07,127.87-4.79,86.99,21.17,49.58,52.41,4.54,101.99,2.17,108.14,1.99Z"/>
      <path class="cls-1" d="M283.45,446.55H94.86c-23.86-3.31-39.66-26.26-36.44-47.97,2.65-17.83,17.8-32.61,36.92-34.49,70.01-1.16,140.02-2.31,210.03-3.47,16.91-5.62,29.82-19.71,33.09-36.85,4.35-22.76-8.89-47.66-32.41-57.1-50.35-.18-100.7-.35-151.04-.53-7.41-.85-13.19-6.59-14.12-13.34-1.16-8.44,5.38-17.47,15.03-18.3,50.07,.15,100.13,.29,150.2,.44,35.78,7.1,62.01,40.28,62.36,78.62,.36,38.92-26.04,72.99-62.36,80.21-69.97,.89-139.94,1.79-209.91,2.68-6.29,.5-10.17,6.16-9.33,10.66,.6,3.19,3.58,5.89,7.36,6.62,62.62-.61,125.24-1.21,187.86-1.82,7.38,2.09,12.6,9.11,12.78,17.12,.17,7.79-4.45,14.89-11.43,17.54Z"/>
    </g>
  </g>
  <g id="P">
    <g>
      <path class="cls-3" d="M471.38,143.6c.41-36.71,.81-73.42,1.22-110.13,71.4-.79,142.8-1.57,214.2-2.36,50.64,7.69,88.81,49.99,91.01,99.72,2.08,47.02-28.44,90.54-74.47,105.27-50.05,.2-100.11,.41-150.16,.61-3.88,.2-27,1.76-43.49,21.45-14.12,16.86-14.05,35.86-13.89,40.61-.2,46.65-.41,93.3-.61,139.95,.35,.62,4.47,7.75,12.82,8.52,6.36,.58,12.6-2.76,15.87-8.52,1.22-46.85,2.44-93.7,3.66-140.56-.15-2.53-.33-10.99,5.51-18.85,8.05-10.83,20.85-11.51,22.57-11.58,50.46-.61,100.92-1.22,151.38-1.83,11.7-3.44,52.38-16.94,79.96-58.41,21.69-32.6,23.72-65.1,23.81-78.49-.38-9.6-3.26-57.13-42.73-93.7C735.74,5.36,698.52,.92,686.86,0c-81.19,1.62-162.37,3.25-243.56,4.87l-2.44,139.34c4.07,6.42,11.37,9.78,18.31,8.52,7.9-1.44,11.7-8.19,12.21-9.13Z"/>
      <path class="cls-3" d="M668.89,78.11c32.02,1.21,56,26.76,55.53,53.91-.37,21.43-15.93,41.58-38.84,49.2-50.56-1.15-94.63-.7-131.75,0-17.95,.34-44.4,1.19-66.84,18.75-6.01,4.71-9.91,9.18-12.65,12.37-8.36,9.71-24.13,31.51-29.04,69.47v157.02c2.43,4.94,7.32,8.19,12.74,8.45,5.91,.28,11.5-3.05,14.17-8.45,.47-49.93,.94-99.86,1.41-149.78,.51-8.66,3.02-30.19,19.24-48.48,2.45-2.76,8.92-9.69,19.41-15.62,16.72-9.44,32.73-10.21,40.47-10.07,48.15-.48,96.3-.96,144.46-1.45,40.64-11.23,66.97-51.05,61.34-92.62-5.65-41.73-41.88-73.2-84.21-73.08-8.82,1.05-15.23,8.19-15.24,15.92,0,6.01,3.86,11.7,9.8,14.47Z"/>
    </g>
  </g>
</svg>